<svg width="16" height="17" viewBox="0 0 16 17" fill="none" xmlns="http://www.w3.org/2000/svg">
<g clip-path="url(#clip0_1_2109)">
<path d="M14.0466 4.36123C12.9733 4.25457 11.8999 4.17457 10.8199 4.11457V4.1079L10.6733 3.24123C10.5733 2.6279 10.4266 1.7079 8.86661 1.7079H7.11994C5.56661 1.7079 5.41994 2.5879 5.31328 3.23457L5.17328 4.0879C4.55328 4.1279 3.93328 4.1679 3.31328 4.2279L1.95328 4.36123C1.67328 4.3879 1.47328 4.63457 1.49994 4.9079C1.52661 5.18123 1.76661 5.38123 2.04661 5.35457L3.40661 5.22123C6.89994 4.87457 10.4199 5.0079 13.9533 5.36123H14.0066C14.2599 5.36123 14.4799 5.1679 14.5066 4.9079C14.5166 4.77473 14.4741 4.64292 14.3881 4.54073C14.3021 4.43854 14.1795 4.37411 14.0466 4.36123ZM12.8199 6.30123C12.6599 6.13457 12.4399 6.04123 12.2133 6.04123H3.78661C3.55994 6.04123 3.33328 6.13457 3.17994 6.30123C3.02661 6.4679 2.93994 6.69457 2.95328 6.9279L3.36661 13.7679C3.43994 14.7812 3.53328 16.0479 5.85994 16.0479H10.1399C12.4666 16.0479 12.5599 14.7879 12.6333 13.7679L13.0466 6.93457C13.0599 6.69457 12.9733 6.4679 12.8199 6.30123ZM9.10661 12.7079H6.88661C6.61328 12.7079 6.38661 12.4812 6.38661 12.2079C6.38661 11.9346 6.61328 11.7079 6.88661 11.7079H9.10661C9.37994 11.7079 9.60661 11.9346 9.60661 12.2079C9.60661 12.4812 9.37994 12.7079 9.10661 12.7079ZM9.66661 10.0412H6.33328C6.05994 10.0412 5.83328 9.81457 5.83328 9.54123C5.83328 9.2679 6.05994 9.04123 6.33328 9.04123H9.66661C9.93994 9.04123 10.1666 9.2679 10.1666 9.54123C10.1666 9.81457 9.93994 10.0412 9.66661 10.0412Z" fill="#F05454"/>
</g>
<defs>
<clipPath id="clip0_1_2109">
<rect width="16" height="16" fill="white" transform="translate(0 0.874573)"/>
</clipPath>
</defs>
</svg>
