<svg width="27" height="32" viewBox="0 0 27 32" fill="none" xmlns="http://www.w3.org/2000/svg">
<path fill-rule="evenodd" clip-rule="evenodd" d="M14.0429 1.47622C13.684 1.40242 13.314 1.40242 12.9551 1.47622C12.5404 1.56152 12.1696 1.76917 11.8749 1.93424L11.7946 1.97912L1.80569 7.52851C1.77808 7.54385 1.74962 7.55952 1.72046 7.57558C1.40847 7.74743 1.01618 7.9635 0.714928 8.2904C0.454472 8.57303 0.257366 8.90802 0.136791 9.27295C-0.00267128 9.69506 -0.0010396 10.1429 0.000258014 10.4991C0.000379315 10.5324 0.000497631 10.5649 0.000497631 10.5965V21.5533C0.000497631 21.5849 0.000379315 21.6174 0.000258014 21.6507C-0.0010396 22.0069 -0.00267128 22.4547 0.136792 22.8768C0.257367 23.2418 0.454474 23.5768 0.714928 23.8594C1.01618 24.1863 1.40847 24.4024 1.72046 24.5742C1.74962 24.5903 1.77808 24.6059 1.80569 24.6213L11.7946 30.1707L11.8749 30.2156C12.1697 30.3806 12.5404 30.5883 12.9551 30.6736C13.314 30.7474 13.684 30.7474 14.0429 30.6736C14.4576 30.5883 14.8284 30.3806 15.1231 30.2156L15.2034 30.1707L25.1923 24.6213C25.2045 24.6145 25.2169 24.6077 25.2294 24.6007C25.2452 24.592 25.2613 24.5832 25.2775 24.5742C25.5895 24.4024 25.9818 24.1863 26.2831 23.8594C26.5435 23.5768 26.7406 23.2418 26.8612 22.8768C27.0007 22.4547 26.999 22.0069 26.9977 21.6507C26.9976 21.6174 26.9975 21.5849 26.9975 21.5533V10.5965C26.9975 10.5649 26.9976 10.5324 26.9977 10.4991C26.999 10.1429 27.0007 9.69506 26.8612 9.27295C26.7406 8.90802 26.5435 8.57303 26.2831 8.2904C25.9818 7.96349 25.5895 7.74742 25.2775 7.57558L25.2764 7.57497C25.2477 7.55912 25.2196 7.54365 25.1923 7.52851L15.2034 1.97912L15.1231 1.93424C14.8284 1.76916 14.4576 1.56152 14.0429 1.47622ZM13.1057 4.33908C13.3102 4.22544 13.4147 4.16802 13.4926 4.13045L13.499 4.12736L13.5055 4.13045C13.5834 4.16802 13.6878 4.22544 13.8923 4.33908L22.8681 9.32561L13.499 14.5307L4.12988 9.32564L13.1057 4.33908ZM2.7002 11.6197L12.1491 16.8691L12.1491 27.2793L3.11678 22.2613C2.90087 22.1414 2.79063 22.0795 2.71329 22.0302L2.70676 22.026L2.70627 22.0183C2.70076 21.9268 2.7002 21.8003 2.7002 21.5533V11.6197Z" fill="#17181A"/>
</svg>
