<svg width="120" height="32" viewBox="0 0 120 32" fill="none" xmlns="http://www.w3.org/2000/svg">
<path fill-rule="evenodd" clip-rule="evenodd" d="M14.0429 1.47622C13.684 1.40242 13.314 1.40242 12.9551 1.47622C12.5404 1.56152 12.1696 1.76917 11.8749 1.93424L11.7946 1.97912L1.80569 7.52851C1.77808 7.54385 1.74962 7.55952 1.72046 7.57558C1.40847 7.74743 1.01618 7.9635 0.714928 8.2904C0.454472 8.57303 0.257366 8.90802 0.136791 9.27295C-0.00267128 9.69505 -0.0010396 10.1429 0.000258014 10.4991C0.000379315 10.5324 0.000497631 10.5649 0.000497631 10.5965V21.5533C0.000497631 21.5849 0.000379315 21.6174 0.000258014 21.6507C-0.0010396 22.0069 -0.00267128 22.4547 0.136792 22.8768C0.257367 23.2418 0.454474 23.5768 0.714928 23.8594C1.01618 24.1863 1.40847 24.4024 1.72046 24.5742C1.74962 24.5903 1.77808 24.6059 1.80569 24.6213L11.7946 30.1707L11.8749 30.2156C12.1697 30.3806 12.5404 30.5883 12.9551 30.6736C13.314 30.7474 13.684 30.7474 14.0429 30.6736C14.4576 30.5883 14.8284 30.3806 15.1231 30.2156L15.2034 30.1707L25.1923 24.6213C25.2045 24.6145 25.2169 24.6077 25.2294 24.6007C25.2452 24.592 25.2613 24.5832 25.2775 24.5742C25.5895 24.4024 25.9818 24.1863 26.2831 23.8594C26.5435 23.5768 26.7406 23.2418 26.8612 22.8768C27.0007 22.4547 26.999 22.0069 26.9977 21.6507C26.9976 21.6174 26.9975 21.5849 26.9975 21.5533V10.5965C26.9975 10.5649 26.9976 10.5324 26.9977 10.4991C26.999 10.1429 27.0007 9.69505 26.8612 9.27295C26.7406 8.90802 26.5435 8.57303 26.2831 8.2904C25.9818 7.96349 25.5895 7.74742 25.2775 7.57558L25.2764 7.57497C25.2477 7.55912 25.2196 7.54365 25.1923 7.52851L15.2034 1.97912L15.1231 1.93424C14.8284 1.76916 14.4576 1.56152 14.0429 1.47622ZM13.1057 4.33908C13.3102 4.22544 13.4147 4.16802 13.4926 4.13045L13.499 4.12736L13.5055 4.13045C13.5834 4.16802 13.6878 4.22544 13.8923 4.33908L22.8681 9.32561L13.499 14.5307L4.12988 9.32564L13.1057 4.33908ZM2.7002 11.6197L12.1491 16.8691L12.1491 27.2793L3.11678 22.2613C2.90087 22.1414 2.79063 22.0795 2.71329 22.0302L2.70676 22.026L2.70627 22.0183C2.70076 21.9268 2.7002 21.8003 2.7002 21.5533V11.6197Z" fill="#17181A"/>
<path d="M40.8383 20.5622H45.1352V23.0943H37.558V9.62801H40.8383V20.5622Z" fill="#17181A"/>
<path d="M48.1577 11.2777C47.5823 11.2777 47.1091 11.1115 46.7382 10.779C46.3801 10.4337 46.2011 10.0117 46.2011 9.51291C46.2011 9.00137 46.3801 8.57935 46.7382 8.24685C47.1091 7.90156 47.5823 7.72891 48.1577 7.72891C48.7204 7.72891 49.1808 7.90156 49.5389 8.24685C49.9098 8.57935 50.0952 9.00137 50.0952 9.51291C50.0952 10.0117 49.9098 10.4337 49.5389 10.779C49.1808 11.1115 48.7204 11.2777 48.1577 11.2777ZM49.7883 12.3903V23.0943H46.508V12.3903H49.7883Z" fill="#17181A"/>
<path d="M56.0404 12.2369C56.7949 12.2369 57.4535 12.3903 58.0162 12.6973C58.5917 13.0042 59.0329 13.407 59.3398 13.9058V12.3903H62.6201V23.0751C62.6201 24.0599 62.4218 24.9487 62.0254 25.7416C61.6417 26.5472 61.0471 27.1867 60.2414 27.6598C59.4485 28.133 58.4574 28.3696 57.2681 28.3696C55.6823 28.3696 54.397 27.9923 53.4123 27.2378C52.4276 26.4961 51.8649 25.4858 51.7242 24.2069H54.9661C55.0684 24.6162 55.3114 24.9359 55.6951 25.1661C56.0787 25.4091 56.5519 25.5305 57.1146 25.5305C57.7924 25.5305 58.3295 25.3323 58.726 24.9359C59.1352 24.5522 59.3398 23.932 59.3398 23.0751V21.5597C59.0201 22.0585 58.5789 22.4677 58.0162 22.7874C57.4535 23.0943 56.7949 23.2478 56.0404 23.2478C55.158 23.2478 54.3587 23.024 53.6425 22.5764C52.9264 22.116 52.3573 21.4702 51.9352 20.6389C51.526 19.7949 51.3214 18.823 51.3214 17.7231C51.3214 16.6233 51.526 15.6578 51.9352 14.8265C52.3573 13.9953 52.9264 13.3559 53.6425 12.9083C54.3587 12.4607 55.158 12.2369 56.0404 12.2369ZM59.3398 17.7423C59.3398 16.9239 59.1096 16.278 58.6492 15.8049C58.2016 15.3317 57.6517 15.0951 56.9995 15.0951C56.3473 15.0951 55.791 15.3317 55.3306 15.8049C54.883 16.2653 54.6592 16.9047 54.6592 17.7231C54.6592 18.5416 54.883 19.1938 55.3306 19.6798C55.791 20.153 56.3473 20.3896 56.9995 20.3896C57.6517 20.3896 58.2016 20.153 58.6492 19.6798C59.1096 19.2066 59.3398 18.5608 59.3398 17.7423Z" fill="#17181A"/>
<path d="M71.3811 12.2752C72.6088 12.2752 73.5935 12.6845 74.3352 13.5029C75.0769 14.3086 75.4478 15.4212 75.4478 16.8407V23.0943H72.1867V17.2819C72.1867 16.5658 72.0013 16.0095 71.6304 15.613C71.2596 15.2166 70.7608 15.0184 70.1342 15.0184C69.5075 15.0184 69.0088 15.2166 68.6379 15.613C68.2671 16.0095 68.0816 16.5658 68.0816 17.2819V23.0943H64.8014V8.89906H68.0816V13.829C68.4141 13.3559 68.8681 12.9786 69.4436 12.6973C70.0191 12.4159 70.6649 12.2752 71.3811 12.2752Z" fill="#17181A"/>
<path d="M83.5013 20.3128V23.0943H81.8324C80.6431 23.0943 79.7159 22.8066 79.0509 22.2311C78.3859 21.6428 78.0534 20.6901 78.0534 19.3729V15.1143H76.7489V12.3903H78.0534V9.78147H81.3336V12.3903H83.4821V15.1143H81.3336V19.4112C81.3336 19.7309 81.4104 19.9611 81.5638 20.1018C81.7173 20.2425 81.9731 20.3128 82.3311 20.3128H83.5013Z" fill="#17181A"/>
<path d="M88.4169 13.9058C88.7238 13.407 89.165 13.0042 89.7405 12.6973C90.316 12.3903 90.9746 12.2369 91.7163 12.2369C92.5987 12.2369 93.398 12.4607 94.1142 12.9083C94.8303 13.3559 95.393 13.9953 95.8023 14.8265C96.2243 15.6578 96.4353 16.6233 96.4353 17.7231C96.4353 18.823 96.2243 19.7949 95.8023 20.6389C95.393 21.4702 94.8303 22.116 94.1142 22.5764C93.398 23.024 92.5987 23.2478 91.7163 23.2478C90.9618 23.2478 90.3032 23.1007 89.7405 22.8066C89.1778 22.4997 88.7366 22.0968 88.4169 21.5981V23.0943H85.1366V8.89906H88.4169V13.9058ZM93.0975 17.7231C93.0975 16.9047 92.8673 16.2653 92.4069 15.8049C91.9593 15.3317 91.403 15.0951 90.738 15.0951C90.0858 15.0951 89.5295 15.3317 89.0691 15.8049C88.6215 16.278 88.3977 16.9239 88.3977 17.7423C88.3977 18.5608 88.6215 19.2066 89.0691 19.6798C89.5295 20.153 90.0858 20.3896 90.738 20.3896C91.3902 20.3896 91.9465 20.153 92.4069 19.6798C92.8673 19.1938 93.0975 18.5416 93.0975 17.7231Z" fill="#17181A"/>
<path d="M102.837 23.2478C101.788 23.2478 100.842 23.024 99.9977 22.5764C99.1665 22.1288 98.5079 21.4894 98.0219 20.6581C97.5487 19.8269 97.3121 18.8549 97.3121 17.7423C97.3121 16.6425 97.5551 15.677 98.0411 14.8457C98.5271 14.0017 99.1921 13.3559 100.036 12.9083C100.88 12.4607 101.826 12.2369 102.875 12.2369C103.924 12.2369 104.87 12.4607 105.714 12.9083C106.558 13.3559 107.223 14.0017 107.709 14.8457C108.195 15.677 108.438 16.6425 108.438 17.7423C108.438 18.8421 108.189 19.8141 107.69 20.6581C107.204 21.4894 106.533 22.1288 105.676 22.5764C104.832 23.024 103.885 23.2478 102.837 23.2478ZM102.837 20.4087C103.463 20.4087 103.994 20.1785 104.429 19.7182C104.877 19.2578 105.1 18.5992 105.1 17.7423C105.1 16.8855 104.883 16.2269 104.448 15.7665C104.026 15.3061 103.502 15.0759 102.875 15.0759C102.236 15.0759 101.705 15.3061 101.283 15.7665C100.861 16.2141 100.65 16.8727 100.65 17.7423C100.65 18.5992 100.855 19.2578 101.264 19.7182C101.686 20.1785 102.21 20.4087 102.837 20.4087Z" fill="#17181A"/>
<path d="M116.317 23.0943L114.264 20.121L112.538 23.0943H108.989L112.519 17.6272L108.893 12.3903H112.576L114.629 15.3445L116.355 12.3903H119.904L116.317 17.7807L120 23.0943H116.317Z" fill="#17181A"/>
</svg>
