<svg width="16" height="16" viewBox="0 0 16 16" fill="none" xmlns="http://www.w3.org/2000/svg">
<g clip-path="url(#clip0_75_313)">
<path d="M6.99998 13.2667V2.73334C6.99998 1.73334 6.57331 1.33334 5.51331 1.33334H2.81998C1.75998 1.33334 1.33331 1.73334 1.33331 2.73334V13.2667C1.33331 14.2667 1.75998 14.6667 2.81998 14.6667H5.51331C6.57331 14.6667 6.99998 14.2667 6.99998 13.2667ZM14.6666 5.68001V2.65334C14.6666 1.71334 14.24 1.33334 13.18 1.33334H10.4866C9.42665 1.33334 8.99998 1.71334 8.99998 2.65334V5.67334C8.99998 6.62001 9.42665 6.99334 10.4866 6.99334H13.18C14.24 7.00001 14.6666 6.62001 14.6666 5.68001ZM14.6666 13.18V10.4867C14.6666 9.42668 14.24 9.00001 13.18 9.00001H10.4866C9.42665 9.00001 8.99998 9.42668 8.99998 10.4867V13.18C8.99998 14.24 9.42665 14.6667 10.4866 14.6667H13.18C14.24 14.6667 14.6666 14.24 14.6666 13.18Z" stroke="#303030" stroke-linecap="round" stroke-linejoin="round"/>
</g>
<defs>
<clipPath id="clip0_75_313">
<rect width="16" height="16" fill="white"/>
</clipPath>
</defs>
</svg>
