<svg width="16" height="17" viewBox="0 0 16 17" fill="none" xmlns="http://www.w3.org/2000/svg">
<path d="M14.4533 11.5675L12.3667 6.6942C11.66 5.04086 10.36 4.9742 9.48666 6.54753L8.22666 8.82086C7.58666 9.9742 6.39332 10.0742 5.56666 9.04086L5.41999 8.8542C4.55999 7.7742 3.34666 7.90753 2.72666 9.14086L1.57999 11.4409C0.773325 13.0409 1.93999 14.9275 3.72666 14.9275H12.2333C13.9667 14.9275 15.1333 13.1609 14.4533 11.5675ZM4.64666 5.5942C5.17709 5.5942 5.6858 5.38348 6.06087 5.00841C6.43594 4.63334 6.64666 4.12463 6.64666 3.5942C6.64666 3.06376 6.43594 2.55506 6.06087 2.17998C5.6858 1.80491 5.17709 1.5942 4.64666 1.5942C4.11622 1.5942 3.60752 1.80491 3.23244 2.17998C2.85737 2.55506 2.64666 3.06376 2.64666 3.5942C2.64666 4.12463 2.85737 4.63334 3.23244 5.00841C3.60752 5.38348 4.11622 5.5942 4.64666 5.5942Z" fill="white"/>
</svg>
