<svg width="16" height="17" viewBox="0 0 16 17" fill="none" xmlns="http://www.w3.org/2000/svg">
<path d="M3.76453 8.427L1.6786 7.94017C1.61946 7.92608 1.56379 7.90014 1.51496 7.86392C1.46613 7.8277 1.42516 7.78194 1.39453 7.72943C1.3639 7.67692 1.34424 7.61873 1.33674 7.5584C1.32925 7.49807 1.33407 7.43684 1.35092 7.37843L2.50623 3.4837C2.53403 3.37664 2.60081 3.28382 2.69348 3.22343L5.74185 1.65618C5.81566 1.61334 5.89996 1.59194 5.98527 1.59439H10.0129C10.0994 1.59491 10.1839 1.62026 10.2564 1.66742L13.3066 3.23467C13.3988 3.29558 13.4654 3.38818 13.4938 3.49494L14.6492 7.38966C14.666 7.4482 14.6707 7.50956 14.6631 7.56999C14.6555 7.63042 14.6357 7.68868 14.6049 7.74122C14.574 7.79376 14.5329 7.83948 14.4838 7.87561C14.4348 7.91175 14.3789 7.93753 14.3196 7.9514L12.2243 8.43824" stroke="#626262" stroke-miterlimit="10"/>
<path d="M3.76453 7.02451V12.655C3.7639 13.0378 3.90984 13.4063 4.1724 13.6849C4.43495 13.9635 4.79419 14.131 5.17636 14.153C6.07773 14.3181 6.99193 14.4033 7.90829 14.4076H8.07868C8.99543 14.3989 9.90962 14.3093 10.8106 14.1399C11.1924 14.1174 11.5512 13.9497 11.8134 13.6712C12.0755 13.3927 12.2212 13.0244 12.2206 12.6419V7.02451" stroke="#626262" stroke-miterlimit="10" stroke-linecap="round"/>
<path d="M9.74145 1.5944C9.74912 1.82876 9.70959 2.06226 9.6252 2.28103C9.54081 2.49981 9.41329 2.69937 9.25022 2.86787C9.08715 3.03636 8.89186 3.17034 8.67597 3.26184C8.46008 3.35335 8.22799 3.4005 7.99351 3.4005C7.75903 3.4005 7.52694 3.35335 7.31105 3.26184C7.09515 3.17034 6.89987 3.03636 6.7368 2.86787C6.57373 2.69937 6.44621 2.49981 6.36182 2.28103C6.27743 2.06226 6.23789 1.82876 6.24557 1.5944" stroke="#626262" stroke-miterlimit="10"/>
</svg>
