<svg width="16" height="17" viewBox="0 0 16 17" fill="none" xmlns="http://www.w3.org/2000/svg">
<path d="M5.33331 8.3942H9.99998M5.33331 11.0609H8.25331M6.66665 4.26086H9.33331C10.6666 4.26086 10.6666 3.5942 10.6666 2.92753C10.6666 1.5942 9.99998 1.5942 9.33331 1.5942H6.66665C5.99998 1.5942 5.33331 1.5942 5.33331 2.92753C5.33331 4.26086 5.99998 4.26086 6.66665 4.26086Z" stroke="#626262" stroke-miterlimit="10" stroke-linecap="round" stroke-linejoin="round"/>
<path d="M10.6667 2.94086C12.8867 3.06086 14 3.88086 14 6.92753V10.9275C14 13.5942 13.3333 14.9275 10 14.9275H6C2.66667 14.9275 2 13.5942 2 10.9275V6.92753C2 3.88753 3.11333 3.06086 5.33333 2.94086" stroke="#626262" stroke-miterlimit="10" stroke-linecap="round" stroke-linejoin="round"/>
</svg>
