<svg width="16" height="17" viewBox="0 0 16 17" fill="none" xmlns="http://www.w3.org/2000/svg">
<mask id="path-1-inside-1_30_560" fill="white">
<path d="M12.6666 15.4275C12.3933 15.4275 12.1666 15.2009 12.1666 14.9275V7.59419C12.1666 7.32086 12.3933 7.09419 12.6666 7.09419C12.94 7.09419 13.1666 7.32086 13.1666 7.59419V14.9275C13.1666 15.2009 12.94 15.4275 12.6666 15.4275ZM12.6666 5.42753C12.3933 5.42753 12.1666 5.20086 12.1666 4.92753V1.59419C12.1666 1.32086 12.3933 1.09419 12.6666 1.09419C12.94 1.09419 13.1666 1.32086 13.1666 1.59419V4.92753C13.1666 5.20086 12.94 5.42753 12.6666 5.42753ZM7.99998 15.4275C7.72665 15.4275 7.49998 15.2009 7.49998 14.9275V11.5942C7.49998 11.3209 7.72665 11.0942 7.99998 11.0942C8.27331 11.0942 8.49998 11.3209 8.49998 11.5942V14.9275C8.49998 15.2009 8.27331 15.4275 7.99998 15.4275ZM7.99998 9.42753C7.72665 9.42753 7.49998 9.20086 7.49998 8.92753V1.59419C7.49998 1.32086 7.72665 1.09419 7.99998 1.09419C8.27331 1.09419 8.49998 1.32086 8.49998 1.59419V8.92753C8.49998 9.20086 8.27331 9.42753 7.99998 9.42753ZM3.33331 15.4275C3.05998 15.4275 2.83331 15.2009 2.83331 14.9275V7.59419C2.83331 7.32086 3.05998 7.09419 3.33331 7.09419C3.60665 7.09419 3.83331 7.32086 3.83331 7.59419V14.9275C3.83331 15.2009 3.60665 15.4275 3.33331 15.4275ZM3.33331 5.42753C3.05998 5.42753 2.83331 5.20086 2.83331 4.92753V1.59419C2.83331 1.32086 3.05998 1.09419 3.33331 1.09419C3.60665 1.09419 3.83331 1.32086 3.83331 1.59419V4.92753C3.83331 5.20086 3.60665 5.42753 3.33331 5.42753Z"/>
</mask>
<path d="M12.6666 15.4275C12.3933 15.4275 12.1666 15.2009 12.1666 14.9275V7.59419C12.1666 7.32086 12.3933 7.09419 12.6666 7.09419C12.94 7.09419 13.1666 7.32086 13.1666 7.59419V14.9275C13.1666 15.2009 12.94 15.4275 12.6666 15.4275ZM12.6666 5.42753C12.3933 5.42753 12.1666 5.20086 12.1666 4.92753V1.59419C12.1666 1.32086 12.3933 1.09419 12.6666 1.09419C12.94 1.09419 13.1666 1.32086 13.1666 1.59419V4.92753C13.1666 5.20086 12.94 5.42753 12.6666 5.42753ZM7.99998 15.4275C7.72665 15.4275 7.49998 15.2009 7.49998 14.9275V11.5942C7.49998 11.3209 7.72665 11.0942 7.99998 11.0942C8.27331 11.0942 8.49998 11.3209 8.49998 11.5942V14.9275C8.49998 15.2009 8.27331 15.4275 7.99998 15.4275ZM7.99998 9.42753C7.72665 9.42753 7.49998 9.20086 7.49998 8.92753V1.59419C7.49998 1.32086 7.72665 1.09419 7.99998 1.09419C8.27331 1.09419 8.49998 1.32086 8.49998 1.59419V8.92753C8.49998 9.20086 8.27331 9.42753 7.99998 9.42753ZM3.33331 15.4275C3.05998 15.4275 2.83331 15.2009 2.83331 14.9275V7.59419C2.83331 7.32086 3.05998 7.09419 3.33331 7.09419C3.60665 7.09419 3.83331 7.32086 3.83331 7.59419V14.9275C3.83331 15.2009 3.60665 15.4275 3.33331 15.4275ZM3.33331 5.42753C3.05998 5.42753 2.83331 5.20086 2.83331 4.92753V1.59419C2.83331 1.32086 3.05998 1.09419 3.33331 1.09419C3.60665 1.09419 3.83331 1.32086 3.83331 1.59419V4.92753C3.83331 5.20086 3.60665 5.42753 3.33331 5.42753Z" fill="#626262"/>
<path d="M12.6666 14.4275C12.9456 14.4275 13.1666 14.6486 13.1666 14.9275H11.1666C11.1666 15.7531 11.841 16.4275 12.6666 16.4275V14.4275ZM13.1666 14.9275V7.59419H11.1666V14.9275H13.1666ZM13.1666 7.59419C13.1666 7.87314 12.9456 8.09419 12.6666 8.09419V6.09419C11.841 6.09419 11.1666 6.76857 11.1666 7.59419H13.1666ZM12.6666 8.09419C12.3877 8.09419 12.1666 7.87314 12.1666 7.59419H14.1666C14.1666 6.76857 13.4923 6.09419 12.6666 6.09419V8.09419ZM12.1666 7.59419V14.9275H14.1666V7.59419H12.1666ZM12.1666 14.9275C12.1666 14.6486 12.3877 14.4275 12.6666 14.4275V16.4275C13.4923 16.4275 14.1666 15.7531 14.1666 14.9275H12.1666ZM12.6666 4.42753C12.9456 4.42753 13.1666 4.64857 13.1666 4.92753H11.1666C11.1666 5.75314 11.841 6.42753 12.6666 6.42753V4.42753ZM13.1666 4.92753V1.59419H11.1666V4.92753H13.1666ZM13.1666 1.59419C13.1666 1.87314 12.9456 2.09419 12.6666 2.09419V0.0941925C11.841 0.0941925 11.1666 0.768574 11.1666 1.59419H13.1666ZM12.6666 2.09419C12.3877 2.09419 12.1666 1.87314 12.1666 1.59419H14.1666C14.1666 0.768574 13.4923 0.0941925 12.6666 0.0941925V2.09419ZM12.1666 1.59419V4.92753H14.1666V1.59419H12.1666ZM12.1666 4.92753C12.1666 4.64857 12.3877 4.42753 12.6666 4.42753V6.42753C13.4923 6.42753 14.1666 5.75314 14.1666 4.92753H12.1666ZM7.99998 14.4275C8.27893 14.4275 8.49998 14.6486 8.49998 14.9275H6.49998C6.49998 15.7531 7.17436 16.4275 7.99998 16.4275V14.4275ZM8.49998 14.9275V11.5942H6.49998V14.9275H8.49998ZM8.49998 11.5942C8.49998 11.8731 8.27893 12.0942 7.99998 12.0942V10.0942C7.17436 10.0942 6.49998 10.7686 6.49998 11.5942H8.49998ZM7.99998 12.0942C7.72103 12.0942 7.49998 11.8731 7.49998 11.5942H9.49998C9.49998 10.7686 8.8256 10.0942 7.99998 10.0942V12.0942ZM7.49998 11.5942V14.9275H9.49998V11.5942H7.49998ZM7.49998 14.9275C7.49998 14.6486 7.72103 14.4275 7.99998 14.4275V16.4275C8.8256 16.4275 9.49998 15.7531 9.49998 14.9275H7.49998ZM7.99998 8.42753C8.27893 8.42753 8.49998 8.64857 8.49998 8.92753H6.49998C6.49998 9.75314 7.17436 10.4275 7.99998 10.4275V8.42753ZM8.49998 8.92753V1.59419H6.49998V8.92753H8.49998ZM8.49998 1.59419C8.49998 1.87314 8.27893 2.09419 7.99998 2.09419V0.0941925C7.17436 0.0941925 6.49998 0.768574 6.49998 1.59419H8.49998ZM7.99998 2.09419C7.72103 2.09419 7.49998 1.87314 7.49998 1.59419H9.49998C9.49998 0.768574 8.8256 0.0941925 7.99998 0.0941925V2.09419ZM7.49998 1.59419V8.92753H9.49998V1.59419H7.49998ZM7.49998 8.92753C7.49998 8.64857 7.72103 8.42753 7.99998 8.42753V10.4275C8.8256 10.4275 9.49998 9.75314 9.49998 8.92753H7.49998ZM3.33331 14.4275C3.61226 14.4275 3.83331 14.6486 3.83331 14.9275H1.83331C1.83331 15.7531 2.50769 16.4275 3.33331 16.4275V14.4275ZM3.83331 14.9275V7.59419H1.83331V14.9275H3.83331ZM3.83331 7.59419C3.83331 7.87314 3.61226 8.09419 3.33331 8.09419V6.09419C2.50769 6.09419 1.83331 6.76857 1.83331 7.59419H3.83331ZM3.33331 8.09419C3.05436 8.09419 2.83331 7.87314 2.83331 7.59419H4.83331C4.83331 6.76857 4.15893 6.09419 3.33331 6.09419V8.09419ZM2.83331 7.59419V14.9275H4.83331V7.59419H2.83331ZM2.83331 14.9275C2.83331 14.6486 3.05436 14.4275 3.33331 14.4275V16.4275C4.15893 16.4275 4.83331 15.7531 4.83331 14.9275H2.83331ZM3.33331 4.42753C3.61226 4.42753 3.83331 4.64857 3.83331 4.92753H1.83331C1.83331 5.75314 2.50769 6.42753 3.33331 6.42753V4.42753ZM3.83331 4.92753V1.59419H1.83331V4.92753H3.83331ZM3.83331 1.59419C3.83331 1.87314 3.61226 2.09419 3.33331 2.09419V0.0941925C2.50769 0.0941925 1.83331 0.768574 1.83331 1.59419H3.83331ZM3.33331 2.09419C3.05436 2.09419 2.83331 1.87314 2.83331 1.59419H4.83331C4.83331 0.768574 4.15893 0.0941925 3.33331 0.0941925V2.09419ZM2.83331 1.59419V4.92753H4.83331V1.59419H2.83331ZM2.83331 4.92753C2.83331 4.64857 3.05436 4.42753 3.33331 4.42753V6.42753C4.15893 6.42753 4.83331 5.75314 4.83331 4.92753H2.83331Z" fill="#626262" mask="url(#path-1-inside-1_30_560)"/>
<path d="M4.66667 8.09419H2C1.72667 8.09419 1.5 7.86753 1.5 7.59419C1.5 7.32086 1.72667 7.09419 2 7.09419H4.66667C4.94 7.09419 5.16667 7.32086 5.16667 7.59419C5.16667 7.86753 4.94 8.09419 4.66667 8.09419ZM14 8.09419H11.3333C11.06 8.09419 10.8333 7.86753 10.8333 7.59419C10.8333 7.32086 11.06 7.09419 11.3333 7.09419H14C14.2733 7.09419 14.5 7.32086 14.5 7.59419C14.5 7.86753 14.2733 8.09419 14 8.09419ZM9.33333 9.42753H6.66667C6.39333 9.42753 6.16667 9.20086 6.16667 8.92753C6.16667 8.65419 6.39333 8.42753 6.66667 8.42753H9.33333C9.60667 8.42753 9.83333 8.65419 9.83333 8.92753C9.83333 9.20086 9.60667 9.42753 9.33333 9.42753Z" fill="#626262"/>
</svg>
