<svg width="16" height="17" viewBox="0 0 16 17" fill="none" xmlns="http://www.w3.org/2000/svg">
<path d="M5.33333 7.0942H10.6667M5.33333 9.42753H9.33333M13.3333 4.9542V11.5675C13.3333 12.5809 13.24 13.3009 13 13.8142C13 13.8209 12.9933 13.8342 12.9867 13.8409C12.84 14.0275 12.6467 14.1209 12.42 14.1209C12.0667 14.1209 11.64 13.8875 11.18 13.3942C10.6333 12.8075 9.79333 12.8542 9.31333 13.4942L8.64 14.3875C8.37333 14.7475 8.02 14.9275 7.66667 14.9275C7.31333 14.9275 6.96 14.7475 6.69333 14.3875L6.01333 13.4875C5.54 12.8542 4.70667 12.8075 4.16 13.3875L4.15333 13.3942C3.4 14.2009 2.73333 14.3209 2.34667 13.8409C2.33965 13.8335 2.335 13.8242 2.33333 13.8142C2.09333 13.3009 2 12.5809 2 11.5675V4.9542C2 3.94087 2.09333 3.22087 2.33333 2.70753C2.33333 2.70087 2.33333 2.6942 2.34667 2.68753C2.72667 2.20087 3.4 2.32087 4.15333 3.12753L4.16 3.1342C4.70667 3.7142 5.54 3.66753 6.01333 3.0342L6.69333 2.1342C6.96 1.7742 7.31333 1.5942 7.66667 1.5942C8.02 1.5942 8.37333 1.7742 8.64 2.1342L9.31333 3.02753C9.79333 3.66753 10.6333 3.7142 11.18 3.12753C11.64 2.6342 12.0667 2.40087 12.42 2.40087C12.6467 2.40087 12.84 2.50087 12.9867 2.68753C13 2.6942 13 2.70087 13 2.70753C13.24 3.22087 13.3333 3.94087 13.3333 4.9542Z" stroke="#626262" stroke-linecap="round" stroke-linejoin="round"/>
</svg>
