<svg width="16" height="17" viewBox="0 0 16 17" fill="none" xmlns="http://www.w3.org/2000/svg">
<path d="M5.33331 8.39421H9.99998M5.33331 11.0609H8.25331M6.66665 4.26087H9.33331C10.6666 4.26087 10.6666 3.59421 10.6666 2.92754C10.6666 1.59421 9.99998 1.59421 9.33331 1.59421H6.66665C5.99998 1.59421 5.33331 1.59421 5.33331 2.92754C5.33331 4.26087 5.99998 4.26087 6.66665 4.26087Z" stroke="#626262" stroke-miterlimit="10" stroke-linecap="round" stroke-linejoin="round"/>
<path d="M10.6667 2.94086C12.8867 3.06086 14 3.88086 14 6.92752V10.9275C14 13.5942 13.3333 14.9275 10 14.9275H6C2.66667 14.9275 2 13.5942 2 10.9275V6.92752C2 3.88752 3.11333 3.06086 5.33333 2.94086" stroke="#626262" stroke-miterlimit="10" stroke-linecap="round" stroke-linejoin="round"/>
</svg>
