<svg width="14" height="15" viewBox="0 0 14 15" fill="none" xmlns="http://www.w3.org/2000/svg">
<path d="M9.94002 2.04922C11.2334 2.04922 12.2734 3.09589 12.2734 4.38256C12.2734 5.64256 11.2734 6.66922 10.0267 6.71589C9.9691 6.70922 9.91094 6.70922 9.85336 6.71589M11.2267 12.7159C11.7067 12.6159 12.16 12.4226 12.5334 12.1359C13.5734 11.3559 13.5734 10.0692 12.5334 9.28922C12.1667 9.00922 11.72 8.82256 11.2467 8.71589M5.10669 6.62922C5.04002 6.62256 4.96002 6.62256 4.88669 6.62922C4.12149 6.60324 3.39645 6.28045 2.86511 5.7292C2.33377 5.17795 2.03785 4.44153 2.04002 3.67589C2.04002 2.04256 3.36002 0.71589 5.00002 0.71589C5.78418 0.701745 6.54184 0.999685 7.10632 1.54417C7.67081 2.08865 7.99588 2.83507 8.01002 3.61922C8.02417 4.40338 7.72623 5.16104 7.18175 5.72552C6.63727 6.29001 5.89084 6.61508 5.10669 6.62922ZM1.77335 9.08922C0.160021 10.1692 0.160021 11.9292 1.77335 13.0026C3.60669 14.2292 6.61336 14.2292 8.44669 13.0026C10.06 11.9226 10.06 10.1626 8.44669 9.08922C6.62002 7.86922 3.61335 7.86922 1.77335 9.08922V9.08922Z" stroke="#626262" stroke-linecap="round" stroke-linejoin="round"/>
</svg>
